# xmcd
#
# Track frame offsets: 
#        150
#        10706
#        24060
#        34632
#        48522
#        58755
#        72250
#        83116
#        100205
#        114793
#        127757
#        140682
#        158523
#        172010
#        189667
#        200473
#        213383
#        230511
#        243733
#        260392
#        275984
#        290931
#        305883
#        321729
#
# Disc length: 4674 seconds
#
# Revision: 3
# Processed by: cddbd v1.5.2PL0 Copyright (c) Steve Scherf et al.
# Submitted via: ExactAudioCopyFreeDBPlugin 1.0
#
DISCID=66124018
DTITLE=Al Green - The Immortal Soul of Al Green [Hi Records box set]
DYEAR=2003
DGENRE=Soul
TTITLE0=Back Up Train (as "Al Greene and The Soul Mates")
TTITLE1=Guilty (as "Al Greene and The Soul Mates")
TTITLE2=I Want to Hold Your Hand
TTITLE3=One Woman
TTITLE4=Get Back, Baby
TTITLE5=Summertime
TTITLE6=What Am I Gonna Do with Myself
TTITLE7=I Can't Get Next to You
TTITLE8=God is Standing By
TTITLE9=You Say It
TTITLE10=Right Now, Right Now
TTITLE11=Are You Lonely for Me Baby
TTITLE12=Driving Wheel
TTITLE13=Light My Fire
TTITLE14=Ride, Sally Ride (single edit)
TTITLE15=Tired of Being Alone
TTITLE16=I'm a Ram
TTITLE17=So You're Leaving
TTITLE18=I've Never Found a Girl
TTITLE19=It Ain't No Fun to Me
TTITLE20=Let's Stay Together
TTITLE21=Old Time Lovin'
TTITLE22=La-La for You
TTITLE23=How Can You Mend a Broken Heart
EXTD=
EXTT0=
EXTT1=
EXTT2=
EXTT3=
EXTT4=
EXTT5=
EXTT6=
EXTT7=
EXTT8=
EXTT9=
EXTT10=
EXTT11=
EXTT12=
EXTT13=
EXTT14=
EXTT15=
EXTT16=
EXTT17=
EXTT18=
EXTT19=
EXTT20=
EXTT21=
EXTT22=
EXTT23=
PLAYORDER=
